<?xml version='1.0' encoding='utf-8'?>
<svg xmlns="http://www.w3.org/2000/svg" width="156.79mm" height="214.01mm" clip-rule="evenodd" fill-rule="evenodd" image-rendering="optimizeQuality" shape-rendering="geometricPrecision" text-rendering="geometricPrecision" version="1.1" viewBox="0 0 14881 20311"> <defs> <style type="text/css">.str0 {stroke:#F79003;stroke-width:16.07;stroke-miterlimit:22.9256} .fil9 {fill:black} .fil3 {fill:black} .fil6 {fill:#009933} .fil19 {fill:#06080A} .fil2 {fill:#13254C} .fil10 {fill:#242A42} .fil17 {fill:#252463} .fil8 {fill:#2E742F} .fil16 {fill:#399DD5} .fil21 {fill:#455A77} .fil4 {fill:#66A83A} .fil15 {fill:#6CBAF4} .fil24 {fill:#7AC0EE} .fil7 {fill:#990000} .fil1 {fill:#990000} .fil22 {fill:#A2E6FA} .fil0 {fill:#A2E9FD} .fil18 {fill:#CC5908} .fil20 {fill:#D86181} .fil13 {fill:#F3AC30} .fil14 {fill:#F3B34A} .fil25 {fill:#F6F9FA} .fil23 {fill:#F79003} .fil5 {fill:#FABB05} .fil11 {fill:#FCE813} .fil12 {fill:white}</style> </defs> <path class="fil0" d="m5606.5 6346.6c468.14-38.6 2652.1-267.38 2944.1-203.09 38.86 97.12 89.21 344.8 36.15 463.66-142.12 129.49-1391.4 164.15-1679.2 189.4-492.36 43.19-1295.6 146.6-1762.4 131.8-29.6-45.03-220.67-477.61-232.79-529.08l455.46-34.5c-15.01-108.71-105.72-291.41 45.2-327.86 149.77-36.19 192.01 163.02 193.52 309.67zm1020.1-5388c762.59-288.23 704.24 643.88 462.03 1107.7-104.93 200.96-273.27 410.5-497.72 494.9-365.8 137.54-475.81-102.56-561.54-314.18-274.27 106.57-650.2 592.23-754.68 961.76 550.52-39.46 558.93 142.78 680.06 163.59-89.25-8.01-214.15-56.22-321.92-75.41-138.46-24.64-279.57-7.46-409.51-11.04-128.96 574.03-420.28 824.34-453.81 963.32 81.47-4.71 40.27-2.65 106.83-38.18 138.21-73.82 218.21-154.46 444.45-69.47 166.8 62.67 241.02 212.56 268.55 438.01-76.91-53.03-240.82-256.66-326.22-282.66-187.21-56.95-319.61 79.51-470.39 129.39-77.29-51.1-51.51-50.52-133.06-110.67-103.07 200.2-292.07 251.87-419.68 499.77 137.7 16.41 44.3-9.22 79.1 58.23-127.77 74.2-311.34 428.96-355.54 536.25-96.68 234.66-0.81 589.21 45.99 820.56-178.77-13.14-240.66 47.82-376.82 80.45-159.93 38.34-272.76 39.77-284.79 205.82 323.4-11.75 483.63 199.8 478 521.31 24.32 201.25 119.08 435.13 236.46 603.02l27.38 37.36c264.54 364.06 278.28 237.23 678.42 381.62 46.65 99.69 197.96 750.79 388.81 1211.8 3.88 9.35 14.42 36.88 17.79 46.14 5.47 14.96 25.41 79.88 28.91 89.95-741.42-48.01-1125-479.74-1328.8-512.5-211.72-34.03-522.49-407.03-564.09-577.47 115.5 60.69 70.32 47.69 156.12 148.75 50.25 59.17 93.26 98.51 142.95 147.22-135.72-203.49-443.13-512.57-462.52-801.2 25.25-93.15 327.32-179.88 306.69-742.25l-1583.5 125.64c89 664.43 567.57 703.07 626.35 864.18 41.28 113.13 42.14 273.3 88.36 410.84 95.34 283.72 128.44 427.62 272.5 728.95 205.61 430.05 435.18 707.14 741.33 1023.8 335.97 347.46 1043 633.02 1577.2 711.02 398.27 58.17 916.78 19.17 965.36 36.79l60.6-117.74c123.88 97.45 390.54 347.27 563.08 400.18-66.73 295.58-691.19 1097.2-396.99 2030 745.34 140.81 600.11 10.46 706.95 470.16 490.88 36.18 772.94 43.36 1225.5-135.36 144.94-57.24 216.24-128.47 330.38-168-55.37-221.96-83.16-634.22-117.79-873.94-48.7-336.87-94.53-617.52-143.9-920.45-56.49-346.67-252.44-1379.7-382.04-1665.6-164.61-16.08-417.67-85.49-539.32-158.28-196.4-142.3-695.48-346.94-723.14-540.99-144.4-14.92-159.78-60.73-248.79-151.71-69.82-71.37-119.82-124.11-188.11-195.8-137.08-143.91-238.19-284.3-358.97-444.47-156.01-206.92-490.23-650.5-546.39-999.64 193.72 118.27 327.3 231.87 533.24 313.97 61.67-36.98-34.96-23.02 54.68-10.02 265.31 38.49 1727.9 1041.3 1925.2 1165.2 467.59 293.63 651.13-130.52 826.76-590.45 79.31-207.71 134.87-394.77 190.62-607.99 32.54-124.45 116.76-591.54 141.96-645.43 27.48-139.48 34.42-158.31 131.96-208.88-263.63 547.94 573.75 692.08 624.73-58.06-200.27-139.16-365.88-226.57-549.79-375.24-574.55-464.53-854.33-1236.9-636.51-2002-206.54-285.73-350.28-298.87-639.36-443.83-43.53-21.83-58.33-31.19-80.69-47.65 483.48 4.81 562.53 208.38 768.61 366.66 48.83-261.82 444.03-905.36 589.21-1052.4-86.52-177.09-674.48-555.1-940.6-686.28-409.84-202.04-808.08-325.11-1298.5-371.28 74.02-257.87 621.44-1142.1 56.32-1367.9-177.59-70.94-334.34-38.67-453.97 80.05z"/> <path class="fil1" d="m7965.7 9987c129.6 285.93 325.55 1319 382.04 1665.6 49.37 302.93 95.2 583.58 143.9 920.45 34.63 239.72 62.42 651.98 117.79 873.94l41.84 932.65c62.7 214.94-5.55 936.07-89.39 1191.7-41.24 125.7-102.33 225.37-131.75 333.24l112.7-128.29c53.65 615.4-75.72 1108.3-178.41 1636.5 231.66 79.94 333.16 97.91 603.32 77.38l106.35-49.61c-58 409.92 272.39 347.83 468.58 389.27l73.73 25.59c153.53 55.65 203.39-12.93 396.29 23.65 211.77 40.15 150.81 54.26 344.49-3.79l51.87-200.48c322.18 7.87 512.72 16.09 697.41-162.39l-365.87-1932.1c-225.01-1165-418.74-2865.5-662.72-3885.9-169.28-708.04-312.4-1107.3-588.74-1666.6 53.86 118.45 84.2 150.5 122.27 283.89-131.91-48.47-56.09-30.13-183.61-240.77-60.77-100.37-104.19-130.24-145.21-244.62 97.83 44.35 54.37 28.19 131.56 94.95-113.66-240.62-336.16-418.76-600.41-572.59-286.36-16.31-279.15 48.11-297.03 309.75-112.25 3.67-99.94-16.61-182.45 45.49-24.03 18.08-43.05 46.9-48.2 51.03-69.44 55.61 55.76-4.48-62.08 38.9-168.56 62.05-245.54-54.23-258.24 193.11z"/> <path class="fil2" d="m7621.6 1363.1c784.98 154.64 1572 547.11 2043.1 1103.4l456.92 599.13c428.94 647 682.83 1539.7 779.34 2346.5 40.73 340.53 15.47 721.97 56.21 1029.1 155.17 2.05 184.6 57.67 221.67 187.56 47.57 166.64 28.86 256.45-8.64 420.43 99.08 192.41 166.46 1205.4 1162.9 1401 831.91 163.27 1447.4-435.59 1420.6-1097-80.62-28.01-59.26-16.2-130.86-64.6-34.31-283.16 283.64-664.31 301.72-1018.8 32.4-635.46-633.34-1485.4-280.55-2203.6 144.08-293.35 423.36-332.29 728.39-257.23 27.43 6.75 104.66 34.53 107.64 35.42 87.08 25.72-12.29 63.82 81.19-5.99-16.6-145.62-119.97-250.4-196.72-368.43-57.48-88.36-36.51-79.68-121.2-166.33-50.87-52.05-90.89-88.82-141.31-148.21-292.51 40.47-1140.3 490.4-1298.8 623.01 275.23-52.83 496.09-210.06 748.13-311.36l-647.39 350.43c-0.48 1.53 1.58 9.63 1.66 11.04 2.07 37.61 135.69 16.32-94.16 54.46-1254.6 208.19-1317.4-222.29-1836.6-461.23 56.17 209.61 127.57 287.53 286.83 394.38 131.13 87.96 308.57 163.43 473.82 212.52-169.31-77.17-269.6 29.56-663.18-246.39-43.15-30.25-83.56-70.03-121.1-102.85l-230.87-250.49c-58.08-70.06-27.29-63.65-117.91-125.73 9.5 124.62 50.88 107.93 95 247.34-85.82-61.71-207.8-297.59-279.45-429.37l-74.33-142.66c-3.51-6.48-8.12-14.56-11.7-21.1-3.63-6.59-8.39-14.57-12.02-21.2-4.77-8.7-19.07-33.74-23.68-42.56-41.89-80.12-71.18-152.83-110.85-239.27-175.52-382.39-219.22-629.57-458.92-922.1-563.08-687.16-1319-567.65-2138.2-410.12l33.31 40.94z"/> <path class="fil3" d="m10340 7541.4c-101.7 45.9-145.35 103.81-255.02 140.11-153.72 50.88-161.83-4.02-292.67 84.09-283.42 24.92-916.88 567.81-921.88 838.94 71.33 207.9 152.34 295.19 323.31 389.2 148.31 81.55 90.31 10.1 143.2 207.47 108.85 406.07 448.04 724.98 1009.8 613.22-47.53 635.67 253.14 1208 987.81 971.12 171.93-55.44 206.49-1.23 388.47-21.46 179.85-19.97 457.78-194.32 527.5-345.71-180.72 78.01-567.24 197.66-579.53-113.87-9.52-241.32 260.96-282.09 479.02-308.43 797.83-96.39 1578.7-554.45 1816.3-1385.1 155.11-542.15 34.82-867.29-190.54-1265.5l-22.31 7.7c26.88 661.39-588.65 1260.3-1420.6 1097-996.47-195.56-1063.9-1208.6-1162.9-1401-180.27 473.93-307.54 458.48-830.03 492.17z"/> <path class="fil2" d="m8198.8 18808c175.86 133.9 52.53 314.39 46.63 532.11-5.48 202.07-1.96 399.11-14.93 588.99-206.41 175.78-533.12 94.45-768.51 52.78 4.13-166.14 1.37-127.62 79.27-241.42 85.46-124.85 351.39-859.83 221.99-1020.2l5.3 114.52c-380.52 17.24-942.26 121.47-1274.8 244.24-338.12 124.84-900.43 425.88-397.92 764.09 580.41 390.65 1726.9 479.22 2551.2 467.29 2674.1-38.67 3283.2-1127.2 915.16-1434.6-423.57-55.01-370.74 59.08-370.74-335.2l27.06-54.79c3.58-7.66 23.72-53.57 27.72-62.18 52.56-112.95 240.05-419.4 19.25-450.22-171.92-23.99 27.21 19.51-140.17-106.03-6.8-5.11-15.15-9.58-22.3-14.1-9.19-5.82-58.31-26.51-66.49-30.53-66.36-32.71-19.56-4.05-85.87-51.89-111.34 49.21-102.58 72.63-207.02 130.46-71.87 39.8-145.11 51.5-221.96 94.7-16.68 189.88-30.91 325.57-79.13 505.14-38.93 145.05-47.15 308.22-243.8 306.95z"/> <path class="fil4" d="m11229 1056.6c787.87-242.39 2023 1540 491.37 1815-1117.7 200.67-1550.9-519.88-1019.9-1371.1 140.61-225.4 243.16-356.09 528.52-443.89zm-935.38-533.8c188.1-57.76 416.68 61.33 597.45 141.59 285.88 126.9 422.76-30.87 689.43 87.1 100.78 44.59 143.66 97.26 227.88 147.1l243.49 109.72c6.56 3.27 14.72 7.54 21.27 10.81 234.82 117.46 613.65 363.2 752.78 598.09l32.01 61.62c110.49 174.97 24.96-84.73 148.46 178.11l117.78 158.42c233.44 217.73 241.33 340.66 301.81 405.44 142.8 152.96 265.12 170.13 440.89 293.66-366.05-22.17-537.57-301.62-671.51-291.51 52.06-15.46 97.41 50.68 146.97 128.65l33.01 60.5c-63.15-7.96-387.67-139.25-742.09-132.94 42.86-371.88 22.37-490.06-175.04-850.34-237.9-434.14-943.63-982.13-1470-575.05-807.15 624.21-374.4 229.48-1388.6 87.42 150.64 104.04 308.54 133.31 585.09 324.13 479.62 330.99 73.77 563.68 282.35 1184.1-250.39-62.01-126.09-94.63-337.29-276.28 34.78 88 74.04 146.12 111.58 224.09l236.23 468.95c44.84 77.2 33.09 38.08 75.59 116.87 56.37 104.55 20.87 8.45 48.88 120.12 90.62 62.08 59.82 55.66 117.91 125.73l230.87 250.49c37.55 32.82 77.96 72.61 121.1 102.85 393.58 275.96 493.87 169.22 663.18 246.39-165.26-49.09-342.7-124.56-473.82-212.52-159.27-106.85-230.67-184.77-286.83-394.38 519.24 238.94 581.96 669.42 1836.6 461.23 229.85-38.13 96.23-16.85 94.16-54.46-0.08-1.4-2.14-9.51-1.66-11.04l647.39-350.43c-252.04 101.3-472.9 258.53-748.13 311.36 158.5-132.61 1006.3-582.54 1298.8-623.01 93.1-50.86 183.73-33.56 301.47-38.7-228.18-96.99-47.61-41.31-54.24-112.3l-115.84-82.78 202.24-23.03-243.97-111.33c201.93 14.53 255.67 65.01 516.45 54.37-107.55-66.36-371.82 11.6-797.4-263.23-114.57-73.98-153.7-95.33-214.3-186.96l283.89 81.15c-208.19-139.34-298.26-49.04-615.13-439.61l-476.24-645.25c96.48 40.94 28.2-8.55 119.89 73.8 30.64 27.52 57.82 71.01 85.48 107.1 136.93 178.69 361.79 484.84 573.1 530.93-551.14-326.61-803.48-1457.4-2559.3-1425.2 330.01-265.88 1414.1 156.79 1529.2 322.16-277.22-395.51-2093-829.41-2343.2-473.7z"/> <path class="fil2" d="m9793.7 6790.3c-296.2-131.36-779.21-614.82-938.36-886.35-234.76-400.55-170.07-1095.2 7.99-1424.7 115.62 830.93 878.15 1517 930.37 2311.1zm-760.32 331.17c-5.36 204.37 66.49 322.13 225.29 460.85 138.39 120.9 277.34 7.18 409.73 66.91 181.91 82.06 62.32 6.73 124.06 116.41 130.84-88.11 138.95-33.21 292.67-84.09 109.67-36.3 153.32-94.22 255.02-140.11 51.48-152.27 141.65-200.42 169.39-405.49 26.75-197.76-34.81-358.96-20.8-493.07 56.95-61.01 158.78-102.18 257.2-170.49-71.16-605.24-302.53-1333.2-538.43-1823.4-203.71-423.3-651.19-1174.1-965.96-1348.8-145.18 147-540.38 790.55-589.21 1052.4-206.09-158.28-285.14-361.85-768.61-366.66 22.36 16.47 37.16 25.82 80.69 47.65 289.07 144.96 432.81 158.1 639.36 443.83-217.83 765.04 61.96 1537.4 636.51 2002 183.91 148.68 349.52 236.09 549.79 375.24-50.98 750.13-888.36 605.99-624.73 58.06-97.54 50.57-104.49 69.4-131.96 208.88z"/> <path class="fil5" d="m9241.6 3300.1c314.77 174.74 762.24 925.53 965.96 1348.8 235.9 490.19 467.27 1218.2 538.43 1823.4l211.2-31.11c-40.74-307.14-15.49-688.58-56.21-1029.1-96.5-806.78-350.4-1699.5-779.34-2346.5l-456.92-599.13c-471.09-556.24-1258.1-948.72-2043.1-1103.4l-314.36-39.66c-68.88 722.69-217.89 616.65-304.71 919.1 490.38 46.17 888.62 169.24 1298.5 371.28 266.12 131.18 854.08 509.19 940.6 686.28z"/> <path class="fil6" d="m6825.7 17251-10.76-248.11 210.15-55.46c26.81-333.22-29.65-674.04-51.82-1010.5-50.96-425.05-132.61-1324.2-11-1669.5 222.4 20.23 428.81 182.31 716.05 232.96 276.04 48.67 559.03 4.46 807.26-63.88l165.7-56.65-41.84-932.65c-114.14 39.53-185.44 110.76-330.38 168-452.55 178.72-734.61 171.54-1225.5 135.36-106.84-459.7 38.39-329.35-706.95-470.16-197.58 348.6-48.2 813.59-60.22 999.24-21.72 335.15-133.28 688.39-148.07 963.28-19.56 363.92 138.84 583.93 150.07 959.35 6.98 232.59 46.31 294.9 78.39 487.88 28.55 171.72-2.17 356.93 32.06 513.91 126.21 60.54 252.38 59.77 426.84 46.89z"/> <path class="fil7" d="m6119.9 10968c-133.86 742.37-331.25 1426.7-411.43 2188.6-76.74 729.36-234.22 1573.8-186.26 2363.5l178.87 105.19-11.98 501.43 197.36 75.29c14.02 368.36-21.04 687.39 35.22 1062 275.82-35.52 259.23-50.67 486.65 57.25 148.31 70.38 307.47 105.57 453.76 6.15-18.58-87.84 36.89-27.63-36.43-76.41-174.46 12.89-300.63 13.66-426.84-46.89-34.23-156.98-3.51-342.19-32.06-513.91-32.08-192.98-71.41-255.29-78.39-487.88-11.23-375.42-169.63-595.43-150.07-959.35 14.79-274.89 126.34-628.13 148.07-963.28 12.02-185.65-137.36-650.64 60.22-999.24-294.21-932.81 330.26-1734.4 396.99-2030-172.54-52.91-439.19-302.73-563.08-400.18l-60.6 117.74z"/> <path class="fil8" d="m9703.9 510.84c-318.94 233.71-711.28 316.76-1163.7 399.43-243.06 44.41-1085.9 193.63-1233.2 285.31l0.23 127.87 314.36 39.66-33.31-40.94c819.23-157.53 1575.1-277.04 2138.2 410.12 239.7 292.53 283.41 539.71 458.92 922.1 39.67 86.43 68.96 159.14 110.85 239.27 4.61 8.82 18.91 33.85 23.68 42.56 3.64 6.63 8.4 14.62 12.02 21.2 3.58 6.54 8.19 14.62 11.7 21.1l74.33 142.66c71.65 131.78 193.63 367.66 279.45 429.37-44.12-139.41-85.5-122.73-95-247.34-28.01-111.67 7.49-15.57-48.88-120.12-42.5-78.79-30.74-39.67-75.59-116.87l-236.23-468.95c-37.54-77.97-76.79-136.09-111.58-224.09 211.2 181.65 86.9 214.27 337.29 276.28-208.58-620.41 197.27-853.11-282.35-1184.1-276.55-190.82-434.45-220.09-585.09-324.13 1014.2 142.06 581.47 536.79 1388.6-87.42 526.39-407.07 1232.1 140.91 1470 575.05 197.41 360.28 217.9 478.46 175.04 850.34 354.42-6.31 678.93 124.98 742.09 132.94l-33.01-60.5c-49.56-77.97-94.91-144.11-146.97-128.65 133.95-10.11 305.47 269.34 671.51 291.51-175.77-123.52-298.09-140.7-440.89-293.66-60.49-64.78-68.37-187.71-301.81-405.44l-117.78-158.42c-123.5-262.84-37.96-3.13-148.46-178.11l-32.01-61.62c-139.13-234.89-517.96-480.63-752.78-598.09-6.55-3.27-14.71-7.54-21.27-10.81l-243.49-109.72c-84.21-49.84-127.09-102.51-227.88-147.1-266.67-117.97-403.55 39.8-689.43-87.1-180.77-80.26-409.35-199.35-597.45-141.59-99.43 10.5-44.28-0.15-143.68 41.89 142.6-246.83 538.71-384.34 835.34-468.21-253.14-1.37-448.87 71.93-636.33 159.32-150.89 70.36-369.08 267.73-510.27 269.44 25.86-62.75 96.11-162.35 139-233.06l-274.24 218.61z"/> <path class="fil9" d="m13754 7353.2 22.31-7.7c137.25-101.89 240.05-174.44 343.77-278.64 297.29-298.65 538.83-724.55 658.7-1169 165.33-613.11 127.89-1251.3-95.33-1849.3-39.43-105.65-48.84-146.07-121.93-210.17-93.49 69.81 5.88 31.71-81.19 5.99-2.98-0.89-80.21-28.67-107.64-35.42-305.03-75.05-584.31-36.12-728.39 257.23-352.79 718.27 312.95 1568.2 280.55 2203.6-18.08 354.52-336.03 735.67-301.72 1018.8 71.6 48.39 50.24 36.59 130.86 64.6z"/> <path class="fil5" d="m8065.2 17586 361.54 80.87c-129.17 193.81-569.23 460.05-897.43 162.68l-296.82-492.06c114.79 163.86 465.8 386.19 737.14 241.37-100.92-129.94-755.25-316.42-687.46-721.27 465.74 62.93 534.24 164.05 948.49-57.7 38.59 197.86-125.06 523.54-165.46 786.09zm420.31-3150.1c41.94 57.05 38.8 154.69 35.83 226.19-20.09 483.61 14.08 1253.2-546.32 1215.8-585.44-39.08-506.92-1069.4-833.34-1147.3-187.96 296.29 122.89 1334.4 550.48 1559.1 226.13 118.85 385.5 12.36 632.18 40.02-3.43 162.01 3 155.76-81.77 235.16-217.5 203.71-540.66 164.79-760.36 34.68-345.49-204.6-379.66-513.81-499.16-770.88l-9.85 107.6c22.17 336.44 78.63 677.27 51.82 1010.5l-210.15 55.46 10.76 248.11c73.32 48.78 17.84-11.43 36.43 76.41 58.12 19.69 271.95 166 347.48 216.05 81.48 53.99 192.85 246.04 238.09 335.15 44.65 87.91 47.47 462.75 364.94 776.16l386.22 153.24c196.65 1.27 204.87-161.9 243.8-306.95 48.21-179.58 62.45-315.26 79.13-505.14 76.86-43.2 150.1-54.9 221.96-94.7 104.44-57.83 95.68-81.25 207.02-130.46 13.41-73.25 3.04-0.9 19.37-66.37 17.34-69.46 7.86 5.48 15.23-69.45 8.14-82.77 1.43-70.57-17.63-144.58-270.16 20.53-371.65 2.56-603.32-77.38 102.69-528.18 232.06-1021.1 178.41-1636.5l-112.7 128.29c29.42-107.86 90.51-207.54 131.75-333.24 83.83-255.6 152.08-976.73 89.39-1191.7l-165.7 56.65z"/> <path class="fil10" d="m4218.3 4811.6c127.61-247.9 316.61-299.57 419.68-499.77 81.56 60.15 55.77 59.57 133.06 110.67 150.78-49.87 283.18-186.34 470.39-129.39 85.4 26 249.31 229.63 326.22 282.66-27.53-225.45-101.75-375.34-268.55-438.01-226.24-84.98-306.24-4.35-444.45 69.47-66.56 35.53-25.36 33.47-106.83 38.18 33.53-138.98 324.85-389.29 453.81-963.32 129.94 3.58 271.05-13.6 409.51 11.04 107.77 19.19 232.67 67.4 321.92 75.41-121.13-20.81-129.54-203.06-680.06-163.59 104.48-369.53 480.41-855.19 754.68-961.76l11.51-438.08c-65.91 60.89-23.98 60.08-123.43 51.25-217.77-19.32-81.11-25.55-120.5-76.94-293.05-177.79-1787.1-171.1-1339.3 1946.2 180.8 854.95-446.42 1048.9-740.64 835.1-189.23-137.5-282.25-394.48-127.13-644.77 136.54-220.31 364.54-256.25 472.38-469.09-262.54 202.35-598.82 311.17-692.53 697.47-94.4-57.8-9.46 12.14-72.43-54.69-74.76-79.39-101.01-189.82-55.32-294.54 56.25-128.91 209.05-149.98 313.78-218.51-219.89 5.72-374.97 94.01-416.9 271.92-61.16 259.62 127.95 321.11 193.66 456.25 34 69.91 153.62 690.35 755.48 619.34 165.16-41.85 26.97-32.91 152.01-112.52z"/> <path class="fil2" d="m5775.2 1779.4c39.39 51.39-97.27 57.62 120.5 76.94 99.45 8.83 57.51 9.64 123.43-51.25l89.97-241.56 78.26-146.23c81.24-188.36 250.08-383.45 417.49-462.6 135.45-108.82 288.24-127.3 475.71-76.1 190.54 76.13 165.32 115.97 226.42 316.96 15.77-34.11 990.11-240.9 1233.2-285.31 452.44-82.67 844.78-165.71 1163.7-399.43l-159.8 3.2c-252.39-281.26-436.81-497.46-993.74-513.04-424.09-11.86-589.2 83.74-896.19 216.5-209.58 90.62-741.02-124.63-1396.8 492.5-455.78 428.89-407.38 871.24-447.45 1003.8-35.36 116.92 49.18-16.72-34.65 65.66z"/> <path class="fil11" d="m6973.2 15937 9.85-107.6c119.5 257.07 153.67 566.28 499.16 770.88 219.71 130.11 542.86 169.03 760.36-34.68 84.77-79.4 78.35-73.15 81.77-235.16-246.68-27.67-406.05 78.82-632.18-40.02-427.59-224.74-738.44-1262.8-550.48-1559.1 326.42 77.91 247.9 1108.2 833.34 1147.3 560.39 37.41 526.22-732.2 546.32-1215.8 2.97-71.5 6.11-169.14-35.83-226.19-248.23 68.34-531.22 112.55-807.26 63.88-287.24-50.65-493.65-212.73-716.05-232.96-121.61 345.23-39.96 1244.4 11 1669.5z"/> <path class="fil12" d="m3432.4 7066.6c20.63 562.37-281.44 649.09-306.69 742.25 19.39 288.64 326.8 597.71 462.52 801.2-49.69-48.72-92.7-88.06-142.95-147.22-85.8-101.06-40.61-88.06-156.12-148.75 41.6 170.45 352.37 543.44 564.09 577.47 203.77 32.76 587.35 464.49 1328.8 512.5-3.5-10.07-23.44-74.99-28.91-89.95-3.37-9.25-13.9-36.79-17.79-46.14-190.85-460.98-342.17-1112.1-388.81-1211.8-400.14-144.39-413.88-17.56-678.42-381.62l-27.38-37.36c-117.37-167.89-212.14-401.77-236.46-603.02l-371.85 32.4z"/> <path class="fil13" d="m6885.8 6792.7c287.77-25.26 1537.1-59.91 1679.2-189.4 53.06-118.85 2.7-366.54-36.15-463.66-291.96-64.29-2476 164.49-2944.1 203.09-1.51-146.65-43.75-345.86-193.52-309.67-150.92 36.45-60.21 219.15-45.2 327.86l-455.46 34.5c12.12 51.47 203.19 484.05 232.79 529.08 466.84 14.8 1270.1-88.61 1762.4-131.8z"/> <path class="fil14" d="m2932.6 6545.4-284.78 27.47c32.38 177.97 137.59 369.68-115.71 385.16-257.35 15.71-280.13 120.17-381.34 34.44-54.23-98.55-48.78-247.26-102.84-365.69l-324.25 11.64c-162.59 29.38-1542.2 101.75-1647.6 160.96 0 0-90.66-10.03-68.08 173.56 5.04 122.87 96.65 268.06 130.22 348.8 426.61-22.13 1278.6-93.21 1710.6-129.48l1583.5-125.64 371.85-32.4c5.63-321.5-154.6-533.06-478-521.31l-393.61 32.5z"/> <path class="fil15" d="m5894.2 7810.1c474.14 227.22 1416.5 798.29 1533.8 1216.4 98.56 177.26 55.83 635.53-1.62 802.29 121.65 72.79 374.71 142.2 539.32 158.28 12.7-247.34 89.68-131.06 258.24-193.11 117.84-43.38-7.36 16.7 62.08-38.9 5.15-4.13 24.17-32.95 48.2-51.03 82.51-62.1 70.2-41.82 182.45-45.49 17.88-261.65 10.67-326.06 297.03-309.75-48.56-158.93-71.46-236.74-58.32-415.36 3.9-53.07 15.38-137.8 29.04-187.16 39.15-141.25 8.66-86.84 86.2-141.64 5-271.13 638.46-814.02 921.88-838.94-61.74-109.68 57.86-34.35-124.06-116.41-132.39-59.73-271.35 53.98-409.73-66.91-158.79-138.72-230.65-256.48-225.29-460.85-25.2 53.89-109.41 520.98-141.96 645.43-55.76 213.22-111.32 400.28-190.62 607.99-175.63 459.93-359.17 884.08-826.76 590.45-197.34-123.91-1659.9-1126.8-1925.2-1165.2-89.63-13 6.99-26.95-54.68 10.02z"/> <path class="fil12" d="m6703.2 9287.7c59.59-86.29 147.2-122.31 295.9-149.44 236.86-43.23 80.78 112.56 256.45-110.93l172.41-0.92c-117.25-418.07-1059.6-989.13-1533.8-1216.4-205.93-82.1-339.52-195.7-533.24-313.97 56.16 349.14 390.38 792.72 546.39 999.64 120.77 160.17 221.89 300.56 358.97 444.47 68.29 71.68 118.29 124.43 188.11 195.8 89.02 90.98 104.39 136.79 248.79 151.71z"/> <path class="fil16" d="m10942 1562.2c-10.72-217.88 320.02-388.77 549.38-151.68 991.62 1025-380.02 1163.9-704.65 865.05-115.26-106.11-98.48-319.21 17.78-414.95 73.72-60.7 135.26-41.81 172.05-105.31 36.07-62.28-30.55-111.68-34.56-193.1zm268.86-393.6c-320.37 72.7-245.48 197.53-366.96 475.46-85.87 196.5-291.28 264.37-297.98 561.63-10.58 469.7 601.01 644.49 1068.3 527.28 1453.7-364.62 282.87-1720.1-403.36-1564.4z"/> <path class="fil0" d="m9793.7 6790.3c-52.22-794.05-814.75-1480.1-930.37-2311.1-178.06 329.52-242.75 1024.2-7.99 1424.7 159.14 271.53 642.16 754.98 938.36 886.35z"/> <path class="fil17" d="m10976 1755.3c-36.8 63.5-98.34 44.61-172.05 105.31-116.25 95.74-133.03 308.84-17.78 414.95 324.64 298.82 1696.3 159.98 704.65-865.05-229.36-237.08-560.11-66.2-549.38 151.68 4.01 81.42 70.62 130.82 34.56 193.1z"/> <path class="fil11" d="m6604.9 954.71c-167.41 79.14-336.24 274.24-417.49 462.6 90.25-25.35 238.92-427.34 563.68-338.19 419.19 115.07 53.59 1181.4-435.31 1143.3-322.99-25.19-225.42-414.25-206.64-658.85l-89.97 241.56-11.51 438.08c85.73 211.62 195.74 451.72 561.54 314.18 224.45-84.4 392.79-293.94 497.72-494.9 242.22-463.86 300.56-1396-462.03-1107.7z"/> <path class="fil0" d="m8198.8 18808-386.22-153.24c-64.1-12.33-36-18.92-49.32 65.45 129.4 160.42-136.54 895.39-221.99 1020.2-77.9 113.8-75.14 75.28-79.27 241.42 235.38 41.67 562.1 123 768.51-52.78 12.96-189.88 9.45-386.92 14.93-588.99 5.9-217.72 129.23-398.21-46.63-532.11z"/> <path class="fil18" d="m11211 1168.6c686.23-155.75 1857 1199.8 403.36 1564.4-467.29 117.21-1078.9-57.58-1068.3-527.28 6.7-297.26 212.1-365.13 297.98-561.63 121.47-277.92 46.59-402.76 366.96-475.46zm18.95-111.95c-285.36 87.8-387.91 218.49-528.52 443.89-531 851.23-97.8 1571.8 1019.9 1371.1 1531.6-274.97 296.5-2057.4-491.37-1815z"/> <path class="fil6" d="m6187.4 1417.3-78.26 146.23c-18.78 244.6-116.36 633.66 206.64 658.85 488.9 38.12 854.5-1028.2 435.31-1143.3-324.76-89.15-473.44 312.84-563.68 338.19z"/> <path class="fil11" d="m8065.2 17586c40.39-262.56 204.05-588.24 165.46-786.09-414.25 221.75-482.76 120.63-948.49 57.7-67.78 404.85 586.55 591.33 687.46 721.27-271.35 144.81-622.35-77.51-737.14-241.37l296.82 492.06c328.21 297.37 768.26 31.13 897.43-162.68l-361.54-80.87z"/> <path class="fil0" d="m10746 6472.4c-98.42 68.31-200.25 109.48-257.2 170.49-14.01 134.12 47.56 295.31 20.8 493.07-27.74 205.07-117.92 253.22-169.39 405.49 522.48-33.69 649.76-18.24 830.03-492.17 37.5-163.97 56.21-253.79 8.64-420.43-37.07-129.89-66.5-185.51-221.67-187.56l-211.2 31.11z"/> <path class="fil0" d="m1723.7 6638.4 324.25-11.64c54.06 118.44 48.61 267.14 102.84 365.69 101.2 85.73 123.99-18.74 381.34-34.44 253.3-15.48 148.1-207.19 115.71-385.16l284.78-27.47c-47.47-276.59 100.3-657.59-211.77-667.65-99.13 102.42-115.01 324.14-138.55 500.47-242.2-42.62-173.65 36.68-293.68 87.09-80.35 33.74-92.42-5.44-257.57 80.91-82.55-379.2-343.01-394.47-307.35 92.19z"/> <path class="fil7" d="m6703.2 9287.7c27.67 194.05 526.75 398.69 723.14 540.99 57.45-166.76 100.19-625.02 1.62-802.29l-172.41 0.92c-175.68 223.49-19.6 67.7-256.45 110.93-148.69 27.13-236.3 63.15-295.9 149.44z"/> <path class="fil19" d="m8228.5 5253c-90.76-226.18-11.15-350.86-248.85-502.32-145.51-92.71-485.03-96.25-581.93 75.15 550.25-11.12 563.05 89.25 679.94 552.25 125 6.15 298-20.69 379.72-84.59l-228.88-40.49z"/> <path class="fil20" d="m7137.7 2929.5c-72.12 76.25-68.11 97.97-116.66 197.09-36.7 74.89-79.7 139.32-123.31 204.66-61.45 92.11-73.74 115.56-145.05 180.62-68.2 62.23-106.42 114.27-224 97.41-169.76-210.65 41.22-482.04 82.73-704.23l-73.38 89.53c-189.41 328.35-218.54 791.92 108.03 688.01 190.91-60.75 457.22-496.34 491.65-753.09z"/> <path class="fil21" d="m5334.8 6286.8h220.58c-47.26-233.74-53.04-259.89-170.53-217.54l-50.05 217.54z"/> <path class="fil22" d="m8577.1 17930c13.74 67.2 16.38 52.69 54.17 94.7 34.49 38.32 25.97 36.01 46.35 78.48 59.9 30.64 65.17 70.65 98.5 141.65 54.61 116.35 29.14 367.72 12.93 500.86-17.84 146.47-50.04 70.1-60.98 420.34-65.89 23.17-98.93 20.11-176.87 38.99l-6.62 108.08c109.1 65.58 321.57 46.32 361.98-14.21-61.17 24.09-144.66 27.63-221.88 30.98-105.62 4.57-134.9-2.33-123.55-112.58 176.49-29.72 131.36 149.63 392.9-56.11 91.44-71.93 208.21-183.21 211.08-308.27 3.84-166.82-22.74-333.24 39.71-470.12 50.29-110.23 118.09-157.23 158.26-237.98 21.55-43.35 9.88-43.42 45.74-70.95 2.89-31.04 6.52-44.2 2.51-76.91-7.08-57.68-17.6-57.03-20.85-62.56-56.91 15.73-31.6-17.9-54.25 66.8-67.97-28.48-65.76 2.07-95.55-79.88l-67.2-131.92-129.93 1.26c-26.23-58.36-7.71-0.97-30.59-64.02-25.7-21.36-26.79-29.97-48.8-46.41-1.09 75.8-6.09 59.41-67.82 145.95l-54.3 57.31c-56.55 51.1-114.93 96.08-197.47 118.37l-67.47-71.84z"/> <ellipse class="fil23 str0" transform="matrix(.61898 -.044272 .044272 .61898 5947.5 6431.1)" rx="370.67" ry="141.78"/> <ellipse class="fil23 str0" transform="matrix(.61898 -.044272 .044272 .61898 6578.8 6377)" rx="370.67" ry="141.78"/> <ellipse class="fil23 str0" transform="matrix(.61898 -.044272 .044272 .61898 7180 6319.9)" rx="370.67" ry="141.78"/> <ellipse class="fil23 str0" transform="matrix(.61898 -.044272 .044272 .61898 1272.3 6805.1)" rx="370.67" ry="141.78"/> <ellipse class="fil23 str0" transform="matrix(-.10661 -.70598 .70598 -.10661 115.64 7061)" rx="370.67" ry="141.78"/> <path class="fil24" d="m5763.2 5248.3c26.59 28.23 45.36 52.29 88.65 63.97 18.56-15.93 5.91 3.57 10.3-30.02-43.69-8.21-92.18-112.51-111.2-161.67-95.19-246.12 27.02-355.72 267.07-291.03-9.63-65.92-10.42-25.22-50.74-70.57l-15.97-4.68c-45.5-4.13-72.5-8.3-114.71 3.05-275.67 54.48-197.32 359.49-73.41 490.96z"/> <path class="fil25" d="m5743.3 5044c7.58 76.66 79.91 26.44 151.98-65.46 16.5-21.05 30.29-49.04 32.93-76.4 7.56-78.31-51.69-96.65-114.94-60.67-67.93 44.5-86.69 122-69.97 202.53z"/> </svg>